# xmcd
#
# Track frame offsets:
#	150
#	20309
#	37878
#	58572
#	77626
#	100459
#	123580
#	140085
#	160069
#	183807
#	202575
#	222816
#	246572
#	265963
#	287052
#	308192
#
# Disc length: 4443 seconds
#
# Revision: 1
# Processed by: cddbd v1.5.2PL0 Copyright (c) Steve Scherf et al.
# Submitted via: audiograbber 1.83.01
#
DISCID=de115910
DTITLE=Various Artist - Impacto Salsaro
DYEAR=1900
DGENRE=Salsa
TTITLE0=Gilberto Santa Rosa - Conteo Regresivo
TTITLE1=Los Adolescentes - Aquel Lugar
TTITLE2=Sexappeal - Por Tu Amor
TTITLE3=Tito Nieves - Mas Que Tu Amigo
TTITLE4=Michel feat. Rubby Perez - Extranandote
TTITLE5=Marc Anthony - A Mi Manera
TTITLE6=Oscar De Leon - Cuidate Bien
TTITLE7=Asdrubal - Suelta Mis Manos Ya
TTITLE8=Jose Alberto El Canario - Muera El Amor
TTITLE9=Hansel Camacho - Hay Una Mujer
TTITLE10=Grupo Bentu - Asi Vivo Yo
TTITLE11=Michel - A La Primera Persona
TTITLE12=Ruina Nueva - Me Quedas Tu
TTITLE13=Los Adolescentes - Huellas
TTITLE14=Raulin Rosendo - Deseo
TTITLE15=Richie Ray y Bobby Cruz - Los Fariseos
EXTD=
EXTT0=
EXTT1=
EXTT2=
EXTT3=
EXTT4=
EXTT5=
EXTT6=
EXTT7=
EXTT8=
EXTT9=
EXTT10=
EXTT11=
EXTT12=
EXTT13=
EXTT14=
EXTT15=
PLAYORDER=
